<mxfile host="app.diagrams.net" modified="2022-05-13T07:37:24.362Z" agent="5.0 (Macintosh; Intel Mac OS X 10_15_7) AppleWebKit/537.36 (KHTML, like Gecko) Chrome/99.0.4844.51 Safari/537.36" etag="bkGgFezZjrc0kIqR2run" version="18.0.3" type="github">
  <diagram id="LSUZlxwzV8cuLmCBYAfr" name="Page-1">
    <mxGraphModel dx="2066" dy="769" grid="1" gridSize="10" guides="1" tooltips="1" connect="1" arrows="1" fold="1" page="1" pageScale="1" pageWidth="850" pageHeight="1100" math="0" shadow="0">
      <root>
        <mxCell id="0" />
        <mxCell id="1" parent="0" />
        <mxCell id="lz62h-cAN_fCFJCXox6R-3" style="edgeStyle=orthogonalEdgeStyle;rounded=0;orthogonalLoop=1;jettySize=auto;html=1;exitX=1;exitY=0.5;exitDx=0;exitDy=0;entryX=0;entryY=0.5;entryDx=0;entryDy=0;" edge="1" parent="1" source="lz62h-cAN_fCFJCXox6R-1" target="lz62h-cAN_fCFJCXox6R-2">
          <mxGeometry relative="1" as="geometry" />
        </mxCell>
        <mxCell id="lz62h-cAN_fCFJCXox6R-1" value="UniformRandomOp" style="rounded=0;whiteSpace=wrap;html=1;" vertex="1" parent="1">
          <mxGeometry x="90" y="600" width="120" height="60" as="geometry" />
        </mxCell>
        <mxCell id="lz62h-cAN_fCFJCXox6R-2" value="W_0" style="ellipse;whiteSpace=wrap;html=1;" vertex="1" parent="1">
          <mxGeometry x="270" y="605" width="90" height="50" as="geometry" />
        </mxCell>
        <mxCell id="lz62h-cAN_fCFJCXox6R-4" value="Input_0" style="ellipse;whiteSpace=wrap;html=1;" vertex="1" parent="1">
          <mxGeometry x="105" y="490" width="90" height="50" as="geometry" />
        </mxCell>
      </root>
    </mxGraphModel>
  </diagram>
</mxfile>
